# xmcd
# 
# Track frame offsets:
#     150
#     20557
#     36481
#     54621
#     69613
# 
# Disc length: 1142
# 
# Revision: 0
# Processed by: cddbd v1.5.2PL0 Copyright (c) Steve Scherf et al.
# Submitted via: fre:ac v1.0.17
# 
DISCID=45047405
DTITLE=Entmenschtlicht - Unlangweilig
DYEAR=2001
DGENRE=Heavy Metal
TTITLE0=Stadtkind
TTITLE1=Schmerz
TTITLE2=Entmenschtlicht
TTITLE3=Sieger
TTITLE4=Asi
EXTD=
EXTT0=
EXTT1=
EXTT2=
EXTT3=
EXTT4=
PLAYORDER=
